#!OML:ASF E:\motion texture\Top Level 1\Subject 1\Session 1\male.ASF
:FULLY-SPECIFIED
:DEGREES
390
root 5.42797 17.627 3.60193 28.3489 -69.5575 -23.2528
lowerback 2.36003 5.2524 -0.366004
upperback 3.47175 6.94531 -7.56732
thorax 3.20909 3.52708 -7.6516
lowerneck -7.9776 14.2619 3.80349
upperneck 32.3849 21.2731 -6.7896
head 13.465 8.6765 -0.282018
rclavicle 2.78299e-014 -5.40694e-014
rhumerus -23.7607 -5.5937 -83.3891
rradius 29.1814
rwrist 15.3343
rhand -9.59273 -21.7193
rfingers 7.12502
rthumb 16.3758 -51.048
lclavicle 2.78299e-014 -5.40694e-014
lhumerus -29.8497 35.7599 60.1804
lradius 25.6963
lwrist -20.4391
lhand -11.9462 30.3334
lfingers 7.12502
lthumb 14.1089 59.8344
rfemur -28.7782 -6.01154 26.9227
rtibia 31.7246
rfoot -7.61571 -16.7916
rtoes 12.754
lfemur -7.47317 -15.5206 1.8892
ltibia 40.0282
lfoot 8.45478 -17.3221
ltoes -14.9305
391
root 5.27603 17.6229 3.56821 28.4937 -69.4702 -23.6057
lowerback 2.35572 5.25998 -0.163377
upperback 3.46773 6.96102 -7.50152
thorax 3.22562 3.54208 -7.6943
lowerneck -7.96784 14.2416 3.81283
upperneck 32.469 21.2306 -6.71926
head 13.4871 8.66236 -0.264176
rclavicle 2.8625e-014 -1.08139e-013
rhumerus -23.5812 -5.37314 -83.4132
rradius 29.4022
rwrist 15.2701
rhand -9.62593 -21.7238
rfingers 7.12502
rthumb 16.3438 -51.0552
lclavicle 2.8625e-014 -1.08139e-013
lhumerus -29.1123 35.0065 61.185
lradius 25.8449
lwrist -19.8122
lhand -12.0003 30.2715
lfingers 7.12502
lthumb 14.0567 59.7761
rfemur -28.3334 -5.94044 27.357
rtibia 32.1562
rfoot -7.91888 -16.6395
rtoes 12.8839
lfemur -7.78748 -15.6964 2.18755
ltibia 40.9992
lfoot 9.60568 -17.3694
ltoes -14.4432
392
root 5.12527 17.6195 3.53555 28.6467 -69.3944 -23.9644
lowerback 2.35127 5.26448 0.0400819
upperback 3.46112 6.97237 -7.43687
thorax 3.23928 3.55484 -7.73897
lowerneck -7.96282 14.2222 3.81825
upperneck 32.5542 21.1896 -6.64721
head 13.51 8.6483 -0.244497
rclavicle 1.51076e-014 -1.59028e-014
rhumerus -23.3965 -5.14231 -83.4344
rradius 29.6338
rwrist 15.2042
rhand -9.66164 -21.7276
rfingers 7.12502
rthumb 16.3095 -51.0618
lclavicle 1.51076e-014 -1.59028e-014
lhumerus -28.3542 34.1275 62.2409
lradius 26.0147
lwrist -19.1783
lhand -12.024 30.1758
lfingers 7.12502
lthumb 14.0339 59.6821
rfemur -27.8654 -5.86786 27.7878
rtibia 32.5416
rfoot -8.23166 -16.5113
rtoes 12.9758
lfemur -8.13089 -15.8501 2.47363
ltibia 41.9794
lfoot 10.671 -17.4031
ltoes -13.9559
393
root 4.97585 17.6169 3.50403 28.8092 -69.331 -24.3291
lowerback 2.34331 5.26875 0.242256
upperback 3.45031 6.98329 -7.37291
thorax 3.25047 3.56724 -7.78358
lowerneck -7.95654 14.2029 3.82216
upperneck 32.6421 21.1482 -6.57307
head 13.5335 8.63396 -0.223968
rclavicle 6.99722e-014 -4.45278e-014
rhumerus -23.2129 -4.9084 -83.4486
rradius 29.8762
rwrist 15.1374
rhand -9.69643 -21.7305
rfingers 7.12502
rthumb 16.276 -51.0674
lclavicle 6.99722e-014 -4.45278e-014
lhumerus -27.587 33.1154 63.3396
lradius 26.2095
lwrist -18.5438
lhand -12.0177 30.0394
lfingers 7.12502
lthumb 14.04 59.5451
rfemur -27.3762 -5.79425 28.2132
rtibia 32.8821
rfoot -8.55452 -16.4039
rtoes 13.0386
lfemur -8.50244 -15.9794 2.74687
ltibia 42.9641
lfoot 11.6388 -17.4283
ltoes -13.4866
394
root 4.82784 17.6149 3.4737 28.9786 -69.2796 -24.6962
lowerback 2.33286 5.2709 0.441222
upperback 3.4367 6.9912 -7.30903
thorax 3.25936 3.57791 -7.82646
lowerneck -7.95304 14.1843 3.82269
upperneck 32.7307 21.1086 -6.49986
head 13.5578 8.61969 -0.202749
rclavicle 1.66979e-014 -9.22361e-014
rhumerus -23.0269 -4.66701 -83.4562
rradius 30.1292
rwrist 15.0692
rhand -9.73372 -21.7337
rfingers 7.12502
rthumb 16.2401 -51.0736
lclavicle 1.66979e-014 -9.22361e-014
lhumerus -26.8208 31.9692 64.4728
lradius 26.4364
lwrist -17.9046
lhand -11.99 29.8652
lfingers 7.12502
lthumb 14.0666 59.3691
rfemur -26.8664 -5.71938 28.6304
rtibia 33.1763
rfoot -8.884 -16.3167
rtoes 13.0783
lfemur -8.90104 -16.0836 3.00613
ltibia 43.948
lfoot 12.5013 -17.4458
ltoes -13.0293
395
root 4.68142 17.6137 3.4447 29.1626 -69.2447 -25.0713
lowerback 2.32045 5.27271 0.639709
upperback 3.41783 6.99838 -7.24744
thorax 3.26406 3.58805 -7.87165
lowerneck -7.95122 14.1665 3.82095
upperneck 32.8203 21.0702 -6.42556
head 13.5825 8.6056 -0.180453
rclavicle -2.78299e-014 -3.49861e-014
rhumerus -22.8411 -4.42279 -83.4584
rradius 30.3922
rwrist 15.0012
rhand -9.77165 -21.7366
rfingers 7.12502
rthumb 16.2035 -51.0794
lclavicle -2.78299e-014 -3.49861e-014
lhumerus -26.0687 30.6834 65.6266
lradius 26.7019
lwrist -17.261
lhand -11.9428 29.6481
lfingers 7.12502
lthumb 14.1121 59.1489
rfemur -26.3407 -5.64031 29.0384
rtibia 33.4267
rfoot -9.21881 -16.2434
rtoes 13.0978
lfemur -9.32526 -16.1579 3.25056
ltibia 44.926
lfoot 13.2494 -17.4564
ltoes -12.5985
396
root 4.53661 17.6132 3.41705 29.3538 -69.2238 -25.4479
lowerback 2.30686 5.27396 0.836104
upperback 3.39526 7.00458 -7.18806
thorax 3.26551 3.59749 -7.91817
lowerneck -7.95292 14.1486 3.81669
upperneck 32.9106 21.0318 -6.35028
head 13.6079 8.59115 -0.157108
rclavicle -1.27222e-014 -4.45278e-014
rhumerus -22.6557 -4.17771 -83.4541
rradius 30.6661
rwrist 14.9318
rhand -9.80969 -21.7383
rfingers 7.12502
rthumb 16.1669 -51.0841
lclavicle -1.27222e-014 -4.45278e-014
lhumerus -25.339 29.2662 66.7907
lradius 27.0101
lwrist -16.6232
lhand -11.8771 29.3819
lfingers 7.12502
lthumb 14.1754 58.8783
rfemur -25.7967 -5.55915 29.4342
rtibia 33.6307
rfoot -9.55673 -16.1833
rtoes 13.0758
lfemur -9.77214 -16.2046 3.47865
ltibia 45.8919
lfoot 13.8768 -17.4609
ltoes -12.2004
397
root 4.39346 17.6136 3.39083 29.552 -69.2169 -25.8246
lowerback 2.29148 5.2737 1.02912
upperback 3.36865 7.0085 -7.13052
thorax 3.26327 3.6055 -7.96489
lowerneck -7.9557 14.1316 3.80967
upperneck 32.9996 20.995 -6.27568
head 13.6329 8.57698 -0.133288
rclavicle 2.78299e-014 -5.40694e-014
rhumerus -22.4713 -3.92892 -83.4436
rradius 30.9504
rwrist 14.8607
rhand -9.84971 -21.7411
rfingers 7.12502
rthumb 16.1284 -51.09
lclavicle 2.78299e-014 -5.40694e-014
lhumerus -24.6451 27.7193 67.9527
lradius 27.3682
lwrist -15.9972
lhand -11.8022 29.0673
lfingers 7.12502
lthumb 14.2476 58.5586
rfemur -25.2362 -5.47597 29.8159
rtibia 33.79
rfoot -9.90116 -16.1345
rtoes 13.0225
lfemur -10.2407 -16.2234 3.68954
ltibia 46.8408
lfoot 14.376 -17.4595
ltoes -11.8523
398
root 4.25205 17.6148 3.36601 29.7568 -69.2228 -26.1995
lowerback 2.27489 5.27111 1.218
upperback 3.33734 7.00902 -7.07474
thorax 3.256 3.61143 -8.01143
lowerneck -7.96107 14.1161 3.79885
upperneck 33.0882 20.9608 -6.20095
head 13.6581 8.56339 -0.108242
rclavicle 3.33958e-014 -1.24042e-013
rhumerus -22.2887 -3.67755 -83.4268
rradius 31.2445
rwrist 14.7894
rhand -9.89113 -21.7421
rfingers 7.12502
rthumb 16.0885 -51.0943
lclavicle 3.33958e-014 -1.24042e-013
lhumerus -23.9973 26.0593 69.0998
lradius 27.7811
lwrist -15.3977
lhand -11.7188 28.6963
lfingers 7.12502
lthumb 14.3279 58.182
rfemur -24.6616 -5.39316 30.1836
rtibia 33.9051
rfoot -10.2482 -16.0972
rtoes 12.9421
lfemur -10.7312 -16.2145 3.88438
ltibia 47.7671
lfoot 14.7471 -17.4499
ltoes -11.5424
399
root 4.11235 17.6169 3.34263 29.9715 -69.2431 -26.5762
lowerback 2.25684 5.2679 1.40278
upperback 3.30137 7.00842 -7.0208
thorax 3.24425 3.61645 -8.05777
lowerneck -7.96777 14.1012 3.78579
upperneck 33.1754 20.9278 -6.12727
head 13.683 8.54996 -0.0829527
rclavicle -2.70347e-014 5.40694e-014
rhumerus -22.1093 -3.42428 -83.4036
rradius 31.5484
rwrist 14.7145
rhand -9.93328 -21.7408
rfingers 7.12502
rthumb 16.0479 -51.0962
lclavicle -2.70347e-014 5.40694e-014
lhumerus -23.4028 24.3018 70.2219
lradius 28.2528
lwrist -14.8424
lhand -11.6472 28.2747
lfingers 7.12502
lthumb 14.3969 57.7554
rfemur -24.0728 -5.30999 30.5371
rtibia 33.9772
rfoot -10.5882 -16.0689
rtoes 12.8087
lfemur -11.2389 -16.1768 4.06249
ltibia 48.6639
lfoot 14.9872 -17.4291
ltoes -11.2866
